<svg width="160" height="64" viewBox="0 0 160 64" fill="none" xmlns="http://www.w3.org/2000/svg">
<g clip-path="url(#clip0_0_1)">
<path d="M22.9261 3.99418L23.2397 4.75343C22.4475 5.13856 21.8588 5.52369 21.4736 5.90882C21.0995 6.28294 20.8354 6.70658 20.6814 7.17974C20.5273 7.64189 20.4503 8.33513 20.4503 9.25943C20.4503 9.55653 20.4558 9.95266 20.4668 10.4478L20.7474 22.7774C20.7694 24.1309 20.9125 25.0167 21.1765 25.4348C21.3636 25.7319 21.5892 25.8805 21.8533 25.8805C22.1724 25.8805 22.6675 25.5614 23.3388 24.9231L23.8174 25.5338L20.7474 28.1582L19.7241 29C18.8548 28.5929 18.2331 28.0537 17.8589 27.3825C17.4958 26.7112 17.2923 25.6384 17.2482 24.1639L10.8606 29C7.30643 26.6562 4.88563 25.4843 3.5982 25.4843C3.27909 25.4843 3.0095 25.5834 2.78943 25.7814C2.62437 25.9245 2.54185 26.128 2.54185 26.3921C2.54185 26.6782 2.64638 26.9918 2.85545 27.3329C3.13054 27.7951 3.26809 28.0977 3.26809 28.2407C3.26809 28.4498 3.19106 28.6314 3.03701 28.7854C2.88296 28.9285 2.6959 29 2.47582 29C2.20073 29 1.98066 28.89 1.8156 28.6699C1.57352 28.3728 1.45248 27.9877 1.45248 27.5145C1.45248 26.9863 1.60103 26.3976 1.89813 25.7484C2.20623 25.0882 2.65738 24.373 3.25158 23.6027C3.37262 23.4376 3.48266 23.2836 3.58169 23.1406L5.94198 19.922C4.34645 18.7226 3.22407 17.5727 2.57486 16.4723C1.93664 15.372 1.61754 14.1396 1.61754 12.7751C1.61754 11.1906 2.01917 9.72159 2.82244 8.36814C3.63671 7.01469 4.85261 5.94733 6.47015 5.16607C8.09869 4.38481 9.77125 3.99418 11.4878 3.99418C14.1177 3.99418 16.654 4.90748 19.0969 6.73409C19.6911 6.10688 20.2632 5.59521 20.8134 5.19908C21.3636 4.79195 22.0678 4.39031 22.9261 3.99418ZM14.8054 7.82346C13.419 7.14123 12.038 6.80011 10.6625 6.80011C9.19906 6.80011 7.8236 7.12472 6.53617 7.77394C5.24875 8.41215 4.28593 9.24293 3.64771 10.2663C3.0095 11.2786 2.6904 12.3185 2.6904 13.3858C2.6904 15.6416 3.9118 17.6387 6.35461 19.3773L11.8674 11.8343C11.0422 11.3831 10.2994 11.1576 9.63921 11.1576C8.7259 11.1576 7.97765 11.5867 7.39446 12.445C7.28442 12.6211 7.17439 12.7091 7.06435 12.7091C6.99833 12.7091 6.93231 12.6761 6.86628 12.61C6.81127 12.544 6.78376 12.4615 6.78376 12.3625C6.78376 12.0214 6.95431 11.5482 7.29543 10.943C7.64754 10.3378 8.15921 9.84813 8.83044 9.474C9.51266 9.09988 10.2279 8.91282 10.9762 8.91282C11.7464 8.91282 12.6212 9.09988 13.6005 9.474L14.8054 7.82346ZM16.9346 9.52352C16.6155 9.1714 16.401 8.94583 16.2909 8.8468C16.2139 8.76977 15.9388 8.5662 15.4656 8.23609L8.25275 18.0734H17.1327L16.9346 9.52352ZM6.47015 20.4832L4.98466 22.5464L13.3694 26.1611L17.2647 23.2891L17.1987 20.4832H6.47015ZM47.6348 12.3625L48.1135 12.8081C47.4863 13.3583 47.0627 13.7984 46.8426 14.1286C46.6335 14.4587 46.496 14.7888 46.4299 15.1189C46.3639 15.449 46.3309 16.1257 46.3309 17.1491V24.0153C46.3309 24.9176 46.4244 25.5173 46.6115 25.8144C46.7986 26.1115 46.9746 26.2601 47.1397 26.2601C47.3708 26.2601 47.7724 26.04 48.3446 25.5999L48.7242 26.0785L45.06 29C44.2457 28.3618 43.7175 27.8336 43.4755 27.4155C43.1233 26.7993 42.9473 26.1446 42.9473 25.4513V15.4985L41.2802 14.0625L38.6394 16.5053V25.4513L39.8938 26.7883L37.0053 29L34.0838 26.7883L35.2887 25.4513V17.2481C35.2887 16.2908 35.2172 15.6746 35.0742 15.3995C34.8761 15.0254 34.3974 14.5797 33.6382 14.0625L31.0303 16.2578V25.4513L32.3012 26.7883L29.3963 29L26.4418 26.7883L27.7292 25.4513V16.6209C27.7292 15.7076 27.6027 15.0474 27.3496 14.6402C27.1515 14.3321 26.97 14.1781 26.8049 14.1781C26.6069 14.1781 26.2052 14.4036 25.6 14.8548L25.2369 14.3101L28.8351 11.4051C29.5833 11.9333 30.0895 12.368 30.3536 12.7091C30.6287 13.0392 30.8213 13.4023 30.9313 13.7984C30.9973 14.0845 31.0303 14.6512 31.0303 15.4985L35.949 11.4051C37.0273 12.2634 37.7316 12.9732 38.0617 13.5344C38.3918 14.0955 38.5843 14.8108 38.6394 15.6801L43.2774 11.4051L45.9843 13.9305L47.6348 12.3625ZM57.6372 11.4051L62.2917 16.8355L54.8973 22.0182V25.0222L58.7265 26.5407L61.3179 24.7746L61.681 25.2698L56.3332 29C55.2439 28.4168 54.3471 27.9987 53.6428 27.7456C52.9386 27.4925 51.9373 27.2284 50.6388 26.9533V26.5407C51.013 26.3206 51.2606 26.051 51.3816 25.7319C51.5136 25.4018 51.5797 24.6976 51.5797 23.6192V14.1781C52.614 13.8039 53.4723 13.4628 54.1545 13.1547C54.6497 12.9237 55.8106 12.3405 57.6372 11.4051ZM55.1283 13.3033L54.8973 13.4188V20.8958L59.2382 17.8588L55.1283 13.3033ZM73.0533 11.4051L75.5456 14.3926L73.0533 16.6044L70.9736 13.98L69.3396 15.4655V25.0882L71.2212 26.4416L72.9213 25.0882L73.3009 25.6164L69.0755 29C68.1732 28.1967 67.4139 27.619 66.7977 27.2669C66.1925 26.9148 65.5268 26.6397 64.8006 26.4416V26.0785C65.2847 25.7374 65.5983 25.3963 65.7414 25.0552C65.8954 24.7031 65.9724 24.0373 65.9724 23.058V16.3238C65.9724 15.4765 65.8734 14.9153 65.6754 14.6402C65.4883 14.3541 65.2792 14.2111 65.0481 14.2111C64.7951 14.2111 64.4484 14.4312 64.0083 14.8713L63.6122 14.3926L67.0948 11.4051C68.0301 12.1204 68.6683 12.7421 69.0095 13.2703C69.2295 13.6004 69.3396 14.057 69.3396 14.6402L73.0533 11.4051ZM81.6527 5.76027H83.7489L81.4711 9.32545H80.8109L81.6527 5.76027ZM80.3983 11.4051L83.3362 13.8315L82.0323 15.1024V24.0814C82.0323 25.0277 82.1203 25.6439 82.2964 25.93C82.4724 26.2161 82.654 26.3591 82.8411 26.3591C82.9731 26.3591 83.0941 26.3316 83.2042 26.2766C83.3582 26.1996 83.6773 25.9795 84.1615 25.6164L84.5576 26.128L80.8109 29C79.9306 28.3728 79.3639 27.7841 79.1108 27.2339C78.8577 26.6727 78.7312 25.6989 78.7312 24.3124V15.1024L77.4933 13.8315L80.3983 11.4051ZM92.1337 11.4051L96.4251 13.848L94.6755 16.4393L91.4404 14.5742V25.0882L94.6755 26.5572L96.4251 25.3193L96.5901 26.0125L92.4968 29C91.4404 28.4058 90.5381 27.9712 89.7899 27.6961C89.0416 27.41 88.1228 27.1624 87.0335 26.9533V26.5572C87.4186 26.2931 87.6717 26.007 87.7927 25.6989C87.9688 25.2698 88.0568 24.5985 88.0568 23.6852V14.2936C89.4323 13.6664 90.7912 12.7036 92.1337 11.4051ZM109.828 12.1149L110.422 12.346C109.828 13.2703 109.448 13.98 109.283 14.4752C109.129 14.9593 109.052 15.6195 109.052 16.4558V23.4872C109.052 24.6536 109.14 25.3853 109.316 25.6824C109.503 25.9685 109.723 26.1115 109.976 26.1115C110.108 26.1115 110.246 26.0785 110.389 26.0125C110.477 25.9575 110.735 25.7594 111.164 25.4183L111.528 25.963L107.847 29C107 28.3398 106.433 27.7511 106.147 27.2339C105.861 26.7057 105.701 25.974 105.668 25.0387L100.65 29C98.7689 27.4595 97.8281 25.941 97.8281 24.4445C97.8281 23.4432 98.0316 22.5023 98.4388 21.622C98.9779 20.4667 99.9077 19.1187 101.228 17.5782L99.2475 13.3528L99.4786 12.8906C99.9077 12.9347 100.227 12.9567 100.436 12.9567C101.734 12.9567 102.879 12.4395 103.869 11.4051C104.672 11.8783 105.547 12.2579 106.493 12.544C107.451 12.8301 108.182 12.9732 108.689 12.9732C108.92 12.9732 109.096 12.9347 109.217 12.8576C109.338 12.7696 109.541 12.522 109.828 12.1149ZM105.668 15.2674L100.023 13.5344L102.037 17.7928L105.668 19.4928V15.2674ZM105.668 20.1696L101.674 18.3044C101.058 19.6469 100.75 20.8243 100.75 21.8366C100.75 23.6192 101.558 25.0882 103.176 26.2436L105.668 24.2299V20.1696ZM123.296 11.4051L126.003 13.9305L127.604 12.379L128.066 12.8246C127.296 13.5289 126.828 14.0625 126.663 14.4257C126.443 14.9098 126.333 15.5755 126.333 16.4228V24.2629C126.333 24.9892 126.449 25.5283 126.68 25.8805C126.823 26.1115 126.982 26.2271 127.158 26.2271C127.312 26.2271 127.675 26.0125 128.248 25.5834L128.644 26.095L125.095 29C124.182 28.3068 123.593 27.6961 123.329 27.1679C123.076 26.6287 122.949 25.7649 122.949 24.5765V15.482L121.15 13.9305L118.476 16.0597V25.4513L119.665 26.6397L116.743 29L113.805 26.6397L115.093 25.4513V17.017C115.093 15.8176 114.972 15.0088 114.73 14.5907C114.565 14.3046 114.378 14.1616 114.168 14.1616C113.948 14.1616 113.618 14.3321 113.178 14.6732L112.782 14.2111L116.298 11.4051C117.266 12.0874 117.871 12.6266 118.113 13.0227C118.355 13.4188 118.476 13.969 118.476 14.6732V15.2344L123.296 11.4051ZM61.1528 38.4893H61.9286C62.1047 39.0395 62.3963 39.4302 62.8034 39.6612C63.3316 39.9693 64.1899 40.1234 65.3782 40.1234C66.1375 40.1234 68.5473 40.0464 72.6077 39.8923C75.0615 39.7933 76.591 39.7438 77.1962 39.7438C79.0228 39.7438 80.5743 40.0574 81.8507 40.6846C83.1382 41.3118 84.1835 42.2746 84.9868 43.573C85.79 44.8715 86.3237 46.6596 86.5878 48.9373C86.7749 50.5329 86.9344 54.0485 87.0665 59.4843C84.9208 60.8378 83.2702 62.0097 82.1148 63C78.6157 62.0207 75.5291 61.531 72.8552 61.531C71.0396 61.531 69.3561 61.7511 67.8046 62.1912C66.253 62.6204 64.608 63.3136 62.8694 64.2709L62.3908 63.6437C64.6465 62.4773 66.6272 61.2834 68.3327 60.062C70.0383 58.8406 71.1607 57.7513 71.6999 56.7939C72.25 55.8256 72.5251 54.5987 72.5251 53.1132C72.5251 52.574 72.5141 51.7763 72.4921 50.7199C72.4701 49.9827 72.4591 49.2179 72.4591 48.4257C72.4591 47.0282 72.5361 45.9993 72.6902 45.3391C72.8552 44.6789 73.1964 43.9197 73.7135 43.0614H73.2844C71.9419 43.8316 71.0451 44.5359 70.594 45.1741C70.1538 45.8013 69.9338 46.6045 69.9338 47.5839L70.0658 53.4433C70.0658 55.0058 69.5982 56.4088 68.6628 57.6522C67.7275 58.8846 65.4828 60.6672 61.9286 63L61.4499 62.3563C63.2435 61.1019 64.4264 60.073 64.9986 59.2698C65.5708 58.4665 65.8569 57.6247 65.8569 56.7444C65.8569 55.9852 65.6148 55.3415 65.1307 54.8133C64.6465 54.2741 64.1128 54.0045 63.5296 54.0045C63.2325 54.0045 62.9574 54.087 62.7044 54.2521C62.4513 54.4171 62.1102 54.7583 61.681 55.2754L61.1528 54.7473C61.527 53.8009 62.0221 53.1077 62.6383 52.6676C63.2655 52.2274 64.0138 52.0073 64.8831 52.0073C65.1362 52.0073 65.4113 52.0349 65.7084 52.0899C66.0165 52.1449 66.3466 52.2274 66.6987 52.3375C66.6767 51.6992 66.6657 51.1436 66.6657 50.6704C66.6657 48.9428 67.0123 47.5399 67.7055 46.4615C68.4098 45.3721 69.7522 44.2388 71.7329 43.0614C69.9173 43.2484 68.3492 43.342 67.0288 43.342C65.6313 43.342 64.4319 43.1439 63.4306 42.7478C62.6824 42.4397 62.1322 41.95 61.7801 41.2788C61.4279 40.5965 61.2189 39.6667 61.1528 38.4893ZM74.5223 43.0614C74.0491 43.8646 73.73 44.5634 73.565 45.1576C73.3449 45.9718 73.2349 46.7311 73.2349 47.4353L73.3669 53.9385C73.3669 54.7748 73.1578 55.6275 72.7397 56.4968C72.4206 57.1461 71.8209 57.9383 70.9406 58.8736C72.5471 58.6095 73.774 58.483 74.6213 58.494L75.5621 58.5105V43.0614H74.5223ZM76.4039 49.3995C77.0751 49.8726 77.6583 50.1972 78.1535 50.3733C78.6597 50.5494 79.2043 50.6374 79.7875 50.6374C80.3707 50.6374 80.9154 50.5494 81.4216 50.3733C81.9278 50.1862 82.522 49.8616 83.2042 49.3995C82.9951 46.9237 82.3569 45.2511 81.2895 44.3818C80.2222 43.5015 78.5936 43.0614 76.4039 43.0614V49.3995ZM76.4039 54.8463C77.1522 54.4171 77.7904 54.1255 78.3186 53.9715C78.8467 53.8064 79.4244 53.7239 80.0516 53.7239C80.6568 53.7239 81.218 53.8009 81.7352 53.955C82.2524 54.098 82.8741 54.3731 83.6003 54.7803L83.3197 50.3073C82.6155 50.7364 82.0048 51.0335 81.4876 51.1986C80.9814 51.3526 80.4258 51.4297 79.8206 51.4297C79.2374 51.4297 78.6597 51.3361 78.0875 51.1491C77.5153 50.962 76.9541 50.6814 76.4039 50.3073V54.8463ZM76.4039 58.56C77.7464 58.6701 78.8357 58.8076 79.672 58.9727C80.5193 59.1267 81.8397 59.4568 83.6333 59.963C83.6553 58.3014 83.6663 57.4432 83.6663 57.3881C83.6663 57.2561 83.6553 56.7279 83.6333 55.8036C82.9291 55.3194 82.3074 54.9838 81.7682 54.7968C81.24 54.6097 80.6623 54.5162 80.0351 54.5162C79.3969 54.5162 78.8027 54.6097 78.2525 54.7968C77.7134 54.9838 77.0971 55.3194 76.4039 55.8036V58.56ZM99.4291 45.4051L101.921 48.3926L99.4291 50.6044L97.3494 47.98L95.7153 49.4655V59.0882L97.597 60.4416L99.297 59.0882L99.6767 59.6164L95.4513 63C94.549 62.1967 93.7897 61.619 93.1735 61.2669C92.5683 60.9148 91.9026 60.6397 91.1763 60.4416V60.0785C91.6605 59.7374 91.9741 59.3963 92.1171 59.0552C92.2712 58.7031 92.3482 58.0373 92.3482 57.058V50.3238C92.3482 49.4765 92.2492 48.9153 92.0511 48.6402C91.8641 48.3541 91.655 48.2111 91.4239 48.2111C91.1708 48.2111 90.8242 48.4312 90.3841 48.8713L89.9879 48.3926L93.4706 45.4051C94.4059 46.1204 95.0441 46.7421 95.3852 47.2703C95.6053 47.6004 95.7153 48.057 95.7153 48.6402L99.4291 45.4051ZM110.818 45.4051L115.472 50.8355L108.078 56.0182V59.0222L111.907 60.5407L114.499 58.7746L114.862 59.2698L109.514 63C108.425 62.4168 107.528 61.9987 106.824 61.7456C106.119 61.4925 105.118 61.2284 103.82 60.9533V60.5407C104.194 60.3206 104.441 60.051 104.562 59.7319C104.694 59.4018 104.76 58.6976 104.76 57.6192V48.1781C105.795 47.8039 106.653 47.4628 107.335 47.1547C107.83 46.9237 108.991 46.3405 110.818 45.4051ZM108.309 47.3033L108.078 47.4188V54.8958L112.419 51.8588L108.309 47.3033ZM128.842 46.1149L129.436 46.346C128.842 47.2703 128.462 47.98 128.297 48.4752C128.143 48.9593 128.066 49.6195 128.066 50.4558V57.4872C128.066 58.6536 128.154 59.3853 128.33 59.6824C128.517 59.9685 128.737 60.1115 128.99 60.1115C129.122 60.1115 129.26 60.0785 129.403 60.0125C129.491 59.9575 129.75 59.7594 130.179 59.4183L130.542 59.963L126.861 63C126.014 62.3398 125.447 61.7511 125.161 61.2339C124.875 60.7057 124.715 59.974 124.682 59.0387L119.665 63C117.783 61.4595 116.842 59.941 116.842 58.4445C116.842 57.4432 117.046 56.5023 117.453 55.622C117.992 54.4667 118.922 53.1187 120.243 51.5782L118.262 47.3528L118.493 46.8906C118.922 46.9347 119.241 46.9567 119.45 46.9567C120.749 46.9567 121.893 46.4395 122.883 45.4051C123.687 45.8783 124.561 46.2579 125.508 46.544C126.465 46.8301 127.197 46.9732 127.703 46.9732C127.934 46.9732 128.11 46.9347 128.231 46.8576C128.352 46.7696 128.556 46.522 128.842 46.1149ZM124.682 49.2674L119.038 47.5344L121.051 51.7928L124.682 53.4928V49.2674ZM124.682 54.1696L120.688 52.3044C120.072 53.6469 119.764 54.8243 119.764 55.8366C119.764 57.6192 120.573 59.0882 122.19 60.2436L124.682 58.2299V54.1696ZM154.029 46.3625L154.508 46.8081C153.881 47.3583 153.457 47.7984 153.237 48.1286C153.028 48.4587 152.89 48.7888 152.824 49.1189C152.758 49.449 152.725 50.1257 152.725 51.1491V58.0153C152.725 58.9176 152.819 59.5173 153.006 59.8144C153.193 60.1115 153.369 60.2601 153.534 60.2601C153.765 60.2601 154.167 60.04 154.739 59.5999L155.119 60.0785L151.454 63C150.64 62.3618 150.112 61.8336 149.87 61.4155C149.518 60.7993 149.342 60.1446 149.342 59.4513V49.4985L147.675 48.0625L145.034 50.5053V59.4513L146.288 60.7883L143.4 63L140.478 60.7883L141.683 59.4513V51.2481C141.683 50.2908 141.612 49.6746 141.469 49.3995C141.271 49.0254 140.792 48.5797 140.033 48.0625L137.425 50.2578V59.4513L138.696 60.7883L135.791 63L132.836 60.7883L134.124 59.4513V50.6209C134.124 49.7076 133.997 49.0474 133.744 48.6402C133.546 48.3321 133.364 48.1781 133.199 48.1781C133.001 48.1781 132.6 48.4036 131.994 48.8548L131.631 48.3101L135.229 45.4051C135.978 45.9333 136.484 46.368 136.748 46.7091C137.023 47.0392 137.216 47.4023 137.326 47.7984C137.392 48.0845 137.425 48.6512 137.425 49.4985L142.343 45.4051C143.422 46.2634 144.126 46.9732 144.456 47.5344C144.786 48.0955 144.979 48.8108 145.034 49.6801L149.672 45.4051L152.379 47.9305L154.029 46.3625Z" fill="white"/>
</g>
<defs>
<clipPath id="clip0_0_1">
<rect width="160" height="64" fill="white"/>
</clipPath>
</defs>
</svg>
